<svg xmlns="http://www.w3.org/2000/svg" width="159.076" height="38.93" viewBox="0 0 159.076 38.93">
  <g id="Group_74" data-name="Group 74" transform="translate(18955 2299)">
    <path id="Path_41" data-name="Path 41" d="M1.54-15.4V0H5.456V-4.334H8.25c3.938,0,6.2-2.09,6.2-5.7,0-3.432-2.266-5.368-6.2-5.368Zm3.916,3.08h2.6c1.716,0,2.706.814,2.706,2.42,0,1.628-.99,2.486-2.706,2.486h-2.6Zm16.39.33c-3.894,0-6.49,2.4-6.49,6.05s2.6,6.072,6.49,6.072c3.872,0,6.468-2.42,6.468-6.072S25.718-11.99,21.846-11.99Zm0,3.014c1.562,0,2.64,1.254,2.64,3.08,0,1.848-1.078,3.08-2.64,3.08-1.584,0-2.662-1.232-2.662-3.08C19.184-7.722,20.262-8.976,21.846-8.976ZM44.682,0l4.334-11.858H45.3L42.9-3.652l-2.442-8.206h-3.63L34.452-3.652,32.01-11.858H28.138L32.472,0h3.784l2.332-7.524L40.92,0ZM55.176-11.99A5.809,5.809,0,0,0,48.994-5.9c0,3.608,2.42,6.028,6.292,6.028a6.813,6.813,0,0,0,5.17-2.09l-2-1.958a4.006,4.006,0,0,1-2.838,1.21,2.742,2.742,0,0,1-2.794-2.2H61.16C61.424-9.24,59.356-11.99,55.176-11.99Zm-2.42,5.038a2.547,2.547,0,0,1,2.464-2.4,2.213,2.213,0,0,1,2.288,2.4Zm14.278-4.906H63.228V0h3.806V-6.094c.2-1.672,1.65-2.706,3.85-2.508v-3.432a4.328,4.328,0,0,0-3.85,2.178Zm15.84,4.026V-3.85a6.544,6.544,0,0,1-2.728.748,4.468,4.468,0,0,1-4.51-4.6A4.435,4.435,0,0,1,80.1-12.254a6.321,6.321,0,0,1,4.114,1.672l2.2-2.662a9.844,9.844,0,0,0-6.292-2.288c-4.862,0-8.492,3.366-8.492,7.832A7.885,7.885,0,0,0,79.86.176a12.1,12.1,0,0,0,6.4-2V-7.832Zm9.9-4.026H88.968V0h3.806V-6.094c.2-1.672,1.65-2.706,3.85-2.508v-3.432a4.328,4.328,0,0,0-3.85,2.178Zm7.5-5.412a1.93,1.93,0,0,0-2,2,1.935,1.935,0,0,0,2,2.024,1.935,1.935,0,0,0,2-2.024A1.93,1.93,0,0,0,100.276-17.27ZM102.146,0V-11.858H98.362V0Zm15-16.324h-3.806V-10.3a4.4,4.4,0,0,0-3.652-1.716c-3.278,0-5.456,2.4-5.456,6.028,0,3.674,2.2,6.138,5.544,6.138a4.291,4.291,0,0,0,3.564-1.716V0h3.806ZM110.7-2.794c-1.584,0-2.64-1.276-2.662-3.1.022-1.826,1.078-3.08,2.662-3.08s2.64,1.254,2.64,3.08S112.288-2.794,110.7-2.794Z" transform="translate(-18913.074 -2272.793)" fill="#282828"/>
    <path id="Path_42" data-name="Path 42" d="M29.74,5.1Q24.171,0,13.756,0H3.158A3.158,3.158,0,0,0,0,3.159V35.771A3.158,3.158,0,0,0,3.158,38.93H13.31q11.138,0,16.569-5.291t5.43-14.369q0-9.077-5.569-14.174M23.624,19.177,13.8,34.4a.475.475,0,0,1-.875-.257V21.527a.71.71,0,0,0-.71-.71h-4a.475.475,0,0,1-.4-.733L17.638,4.861a.475.475,0,0,1,.875.257V17.734a.71.71,0,0,0,.71.71h4a.475.475,0,0,1,.4.733" transform="translate(-18955 -2299)" fill="#05d37e"/>
  </g>
</svg>
