<svg xmlns="http://www.w3.org/2000/svg" width="35.309" height="38.93" viewBox="0 0 35.309 38.93">
  <path id="Path_42" data-name="Path 42" d="M29.74,5.1Q24.171,0,13.756,0H3.158A3.158,3.158,0,0,0,0,3.159V35.771A3.158,3.158,0,0,0,3.158,38.93H13.31q11.138,0,16.569-5.291t5.43-14.369q0-9.077-5.569-14.174M23.624,19.177,13.8,34.4a.475.475,0,0,1-.875-.257V21.527a.71.71,0,0,0-.71-.71h-4a.475.475,0,0,1-.4-.733L17.638,4.861a.475.475,0,0,1,.875.257V17.734a.71.71,0,0,0,.71.71h4a.475.475,0,0,1,.4.733" fill="#05d37e"/>
</svg>
