<svg width="1000" height="1000" viewBox="0 0 1000 1000" fill="none" xmlns="http://www.w3.org/2000/svg">
<path d="M96.3333 755.536V765.682H78.5625V775.765H94.9792V785.911H78.5625V806.265H67V755.536H96.3333Z" fill="black"/>
<path d="M138.035 755.536V796.119H155.493V806.265H126.473V755.536H138.035Z" fill="black"/>
<path d="M224.823 755.536V788.244C224.823 794.484 223.141 799.197 219.781 802.39C216.417 805.588 211.495 807.182 205.01 807.182C198.536 807.182 193.62 805.588 190.26 802.39C186.896 799.197 185.219 794.484 185.219 788.244V755.536H196.781V784.869C196.781 788.968 197.427 791.817 198.719 793.411C200.01 795.01 202.104 795.807 205.01 795.807C207.927 795.807 210.031 795.01 211.323 793.411C212.615 791.817 213.26 788.968 213.26 784.869V755.536H224.823Z" fill="black"/>
<path d="M252.994 765.682V755.536H288.661V765.682H276.598V806.265H265.036V765.682H252.994Z" fill="black"/>
<path d="M314.252 765.682V755.536H349.919V765.682H337.856V806.265H326.294V765.682H314.252Z" fill="black"/>
<path d="M407.716 755.536V765.682H390.258V775.765H406.987V785.911H390.258V796.119H407.716V806.265H378.695V755.536H407.716Z" fill="black"/>
<path d="M438.969 755.536H457.115C461.99 755.536 465.958 756.843 469.031 759.453C472.115 762.052 473.656 765.765 473.656 770.598C473.656 774.322 472.719 777.447 470.844 779.973C468.979 782.505 466.453 784.275 463.26 785.286L480.74 806.265H466.031L450.531 786.223V806.265H438.969V755.536ZM450.531 778.036H451.885C452.953 778.036 453.854 778.015 454.594 777.973C455.328 777.932 456.167 777.796 457.115 777.557C458.057 777.307 458.812 776.963 459.385 776.515C459.969 776.057 460.458 775.4 460.865 774.536C461.281 773.677 461.49 772.635 461.49 771.411C461.49 770.177 461.281 769.13 460.865 768.265C460.458 767.406 459.969 766.755 459.385 766.307C458.812 765.848 458.057 765.494 457.115 765.244C456.167 764.994 455.328 764.848 454.594 764.807C453.854 764.765 452.953 764.744 451.885 764.744H450.531V778.036Z" fill="black"/>
<path d="M578.018 755.536V765.682H560.56V775.765H577.289V785.911H560.56V796.119H578.018V806.265H548.997V755.536H578.018Z" fill="black"/>
<path d="M620.832 774.786V806.265H609.27V755.536H620.832L640.999 787.015H641.124V755.536H652.686V806.265H641.124L620.957 774.786H620.832Z" fill="black"/>
<path d="M713.693 755.536V765.682H696.234V775.765H712.964V785.911H696.234V796.119H713.693V806.265H684.672V755.536H713.693Z" fill="black"/>
<path d="M744.944 755.536H763.09C767.965 755.536 771.934 756.843 775.007 759.453C778.09 762.052 779.632 765.765 779.632 770.598C779.632 774.322 778.694 777.447 776.819 779.973C774.955 782.505 772.429 784.275 769.236 785.286L786.715 806.265H772.007L756.507 786.223V806.265H744.944V755.536ZM756.507 778.036H757.861C758.929 778.036 759.83 778.015 760.569 777.973C761.304 777.932 762.142 777.796 763.09 777.557C764.033 777.307 764.788 776.963 765.361 776.515C765.944 776.057 766.434 775.4 766.84 774.536C767.257 773.677 767.465 772.635 767.465 771.411C767.465 770.177 767.257 769.13 766.84 768.265C766.434 767.406 765.944 766.755 765.361 766.307C764.788 765.848 764.033 765.494 763.09 765.244C762.142 764.994 761.304 764.848 760.569 764.807C759.83 764.765 758.929 764.744 757.861 764.744H756.507V778.036Z" fill="black"/>
<path d="M859.456 777.848V788.869C858.149 794.9 855.279 799.463 850.852 802.557C846.42 805.64 841.482 807.182 836.04 807.182C829.191 807.182 823.357 804.619 818.54 799.494C813.717 794.369 811.311 788.182 811.311 780.932C811.311 773.546 813.665 767.307 818.373 762.223C823.092 757.14 828.982 754.598 836.04 754.598C844.274 754.598 850.79 757.494 855.581 763.286L848.019 771.578C845.311 767.234 841.54 765.057 836.706 765.057C833.133 765.057 830.087 766.609 827.561 769.703C825.045 772.802 823.79 776.546 823.79 780.932C823.79 785.239 825.045 788.921 827.561 791.973C830.087 795.031 833.133 796.557 836.706 796.557C839.665 796.557 842.232 795.671 844.415 793.89C846.607 792.098 847.706 789.723 847.706 786.765H836.04V777.848H859.456Z" fill="black"/>
<path d="M883.626 755.536H897.543L908.105 771.765L918.688 755.536H932.584L913.897 783.515V806.265H902.334V783.515L883.626 755.536Z" fill="black"/>
<path d="M688.333 481.854H599.083V533.396H684.562V585.25H599.083V637.417H688.333V689.271H540V514.038L589.154 430H688.333V481.854Z" fill="black"/>
<path d="M461.125 286.583H370.771V337.854H449.766L424.497 389.417H370.771V492.896H312V235H461.125V286.583Z" fill="black"/>
<mask id="mask0_145_323" style="mask-type:luminance" maskUnits="userSpaceOnUse" x="389" y="235" width="181" height="415">
<path d="M389 235H570V649.604H389V235Z" fill="white"/>
</mask>
<g mask="url(#mask0_145_323)">
<path d="M522.646 230L389 502L463.5 502.271L444.615 644.604L570.016 429.938H494L522.646 230Z" fill="#63EB9A"/>
</g>
</svg>
